<svg version="1" xmlns="http://www.w3.org/2000/svg" width="400" height="400" viewBox="0 0 300.000000 300.000000"><path d="M0 150v150h300V0H0v150zM290.1 9.5c.1.5.2 63.9.3 140.7.1 92.4-.2 139.9-.9 140.1-.5.2-63.8.3-140.5.3l-139.4-.1L9.5 151c-.1-76.7.2-140.2.6-141 .6-1.3 17.2-1.5 140.3-1.5 92.3 0 139.6.3 139.7 1z"/><path d="M53 150v105.1l53.8-.4c45.9-.3 54.9-.6 61.7-2 38.9-8.4 67.4-31 79.5-63.3 8.2-22 9-50.6 2-72.9-12-38.2-42.2-62.9-85.4-70-5.9-1-22-1.4-59.8-1.5H53v105zm103.7-60.7c27.1 7.1 43.7 30.7 43.6 62.2-.1 14.9-4.7 29.3-12.9 40.1-8.3 10.8-21.6 18.5-34.9 20.1-6.5.7-43.9.8-45.1 0-.7-.4-1.2-120.7-.5-123.8 0-.3 9.9-.4 21.9-.3 16.3.1 23.2.5 27.9 1.7z"/></svg>